<svg id="visual" viewBox="0 0 900 600" width="900" height="600" xmlns="http://www.w3.org/2000/svg" xmlns:xlink="http://www.w3.org/1999/xlink" version="1.1"><rect x="0" y="0" width="900" height="600" fill="#FFAC4A"></rect><defs><linearGradient id="grad1_0" x1="33.3%" y1="0%" x2="100%" y2="100%"><stop offset="20%" stop-color="#ff7000" stop-opacity="1"></stop><stop offset="80%" stop-color="#ff7000" stop-opacity="1"></stop></linearGradient></defs><defs><linearGradient id="grad1_1" x1="33.3%" y1="0%" x2="100%" y2="100%"><stop offset="20%" stop-color="#ff7000" stop-opacity="1"></stop><stop offset="80%" stop-color="#ff9028" stop-opacity="1"></stop></linearGradient></defs><defs><linearGradient id="grad1_2" x1="33.3%" y1="0%" x2="100%" y2="100%"><stop offset="20%" stop-color="#ffac4a" stop-opacity="1"></stop><stop offset="80%" stop-color="#ff9028" stop-opacity="1"></stop></linearGradient></defs><defs><linearGradient id="grad2_0" x1="0%" y1="0%" x2="66.7%" y2="100%"><stop offset="20%" stop-color="#ff7000" stop-opacity="1"></stop><stop offset="80%" stop-color="#ff7000" stop-opacity="1"></stop></linearGradient></defs><defs><linearGradient id="grad2_1" x1="0%" y1="0%" x2="66.7%" y2="100%"><stop offset="20%" stop-color="#ff9028" stop-opacity="1"></stop><stop offset="80%" stop-color="#ff7000" stop-opacity="1"></stop></linearGradient></defs><defs><linearGradient id="grad2_2" x1="0%" y1="0%" x2="66.7%" y2="100%"><stop offset="20%" stop-color="#ff9028" stop-opacity="1"></stop><stop offset="80%" stop-color="#ffac4a" stop-opacity="1"></stop></linearGradient></defs><g transform="translate(900, 0)"><path d="M0 432.7C-39.9 432.5 -79.8 432.3 -111.3 415.3C-142.8 398.4 -165.8 364.8 -200 346.4C-234.2 328.1 -279.6 325 -299.1 299.1C-318.6 273.2 -312.1 224.5 -331.7 191.5C-351.2 158.5 -396.8 141.3 -417.9 112C-439.1 82.7 -435.9 41.3 -432.7 0L0 0Z" fill="#ff9e39"></path><path d="M0 288.4C-26.6 288.3 -53.2 288.2 -74.2 276.9C-95.2 265.6 -110.5 243.2 -133.3 230.9C-156.1 218.7 -186.4 216.7 -199.4 199.4C-212.4 182.1 -208.1 149.7 -221.1 127.7C-234.2 105.7 -264.5 94.2 -278.6 74.7C-292.7 55.1 -290.6 27.6 -288.4 0L0 0Z" fill="#ff8116"></path><path d="M0 144.2C-13.3 144.2 -26.6 144.1 -37.1 138.4C-47.6 132.8 -55.3 121.6 -66.7 115.5C-78.1 109.4 -93.2 108.3 -99.7 99.7C-106.2 91.1 -104 74.8 -110.6 63.8C-117.1 52.8 -132.3 47.1 -139.3 37.3C-146.4 27.6 -145.3 13.8 -144.2 0L0 0Z" fill="#ff7000"></path></g><g transform="translate(0, 600)"><path d="M0 -432.7C37.2 -421.2 74.3 -409.7 104.8 -391.2C135.3 -372.7 159.2 -347.3 193 -334.3C226.8 -321.3 270.4 -320.8 303.3 -303.3C336.3 -285.9 358.5 -251.3 374.7 -216.3C390.9 -181.3 400.9 -145.9 409.6 -109.7C418.2 -73.6 425.4 -36.8 432.7 0L0 0Z" fill="#ff9e39"></path><path d="M0 -288.4C24.8 -280.8 49.5 -273.1 69.9 -260.8C90.2 -248.5 106.2 -231.5 128.7 -222.9C151.2 -214.2 180.3 -213.9 202.2 -202.2C224.2 -190.6 239 -167.6 249.8 -144.2C260.6 -120.9 267.3 -97.2 273 -73.2C278.8 -49.1 283.6 -24.5 288.4 0L0 0Z" fill="#ff8116"></path><path d="M0 -144.2C12.4 -140.4 24.8 -136.6 34.9 -130.4C45.1 -124.2 53.1 -115.8 64.3 -111.4C75.6 -107.1 90.1 -106.9 101.1 -101.1C112.1 -95.3 119.5 -83.8 124.9 -72.1C130.3 -60.4 133.6 -48.6 136.5 -36.6C139.4 -24.5 141.8 -12.3 144.2 0L0 0Z" fill="#ff7000"></path></g></svg>