<svg id="visual" viewBox="0 0 900 600" width="900" height="600" xmlns="http://www.w3.org/2000/svg" xmlns:xlink="http://www.w3.org/1999/xlink" version="1.1"><path d="M0 91L13.7 89C27.3 87 54.7 83 82 80C109.3 77 136.7 75 163.8 81C191 87 218 101 245.2 103C272.3 105 299.7 95 327 89C354.3 83 381.7 81 409 82C436.3 83 463.7 87 491 94C518.3 101 545.7 111 573 103C600.3 95 627.7 69 654.8 64C682 59 709 75 736.2 90C763.3 105 790.7 119 818 116C845.3 113 872.7 93 886.3 83L900 73L900 0L886.3 0C872.7 0 845.3 0 818 0C790.7 0 763.3 0 736.2 0C709 0 682 0 654.8 0C627.7 0 600.3 0 573 0C545.7 0 518.3 0 491 0C463.7 0 436.3 0 409 0C381.7 0 354.3 0 327 0C299.7 0 272.3 0 245.2 0C218 0 191 0 163.8 0C136.7 0 109.3 0 82 0C54.7 0 27.3 0 13.7 0L0 0Z" fill="#ffa158"></path><path d="M0 151L13.7 160C27.3 169 54.7 187 82 184C109.3 181 136.7 157 163.8 164C191 171 218 209 245.2 218C272.3 227 299.7 207 327 196C354.3 185 381.7 183 409 179C436.3 175 463.7 169 491 171C518.3 173 545.7 183 573 173C600.3 163 627.7 133 654.8 128C682 123 709 143 736.2 170C763.3 197 790.7 231 818 241C845.3 251 872.7 237 886.3 230L900 223L900 71L886.3 81C872.7 91 845.3 111 818 114C790.7 117 763.3 103 736.2 88C709 73 682 57 654.8 62C627.7 67 600.3 93 573 101C545.7 109 518.3 99 491 92C463.7 85 436.3 81 409 80C381.7 79 354.3 81 327 87C299.7 93 272.3 103 245.2 101C218 99 191 85 163.8 79C136.7 73 109.3 75 82 78C54.7 81 27.3 85 13.7 87L0 89Z" fill="#ff8a34"></path><path d="M0 367L13.7 356C27.3 345 54.7 323 82 303C109.3 283 136.7 265 163.8 277C191 289 218 331 245.2 342C272.3 353 299.7 333 327 323C354.3 313 381.7 313 409 312C436.3 311 463.7 309 491 325C518.3 341 545.7 375 573 374C600.3 373 627.7 337 654.8 344C682 351 709 401 736.2 418C763.3 435 790.7 419 818 397C845.3 375 872.7 347 886.3 333L900 319L900 221L886.3 228C872.7 235 845.3 249 818 239C790.7 229 763.3 195 736.2 168C709 141 682 121 654.8 126C627.7 131 600.3 161 573 171C545.7 181 518.3 171 491 169C463.7 167 436.3 173 409 177C381.7 181 354.3 183 327 194C299.7 205 272.3 225 245.2 216C218 207 191 169 163.8 162C136.7 155 109.3 179 82 182C54.7 185 27.3 167 13.7 158L0 149Z" fill="#ff7000"></path><path d="M0 433L13.7 428C27.3 423 54.7 413 82 399C109.3 385 136.7 367 163.8 373C191 379 218 409 245.2 419C272.3 429 299.7 419 327 407C354.3 395 381.7 381 409 381C436.3 381 463.7 395 491 417C518.3 439 545.7 469 573 465C600.3 461 627.7 423 654.8 421C682 419 709 453 736.2 462C763.3 471 790.7 455 818 438C845.3 421 872.7 403 886.3 394L900 385L900 317L886.3 331C872.7 345 845.3 373 818 395C790.7 417 763.3 433 736.2 416C709 399 682 349 654.8 342C627.7 335 600.3 371 573 372C545.7 373 518.3 339 491 323C463.7 307 436.3 309 409 310C381.7 311 354.3 311 327 321C299.7 331 272.3 351 245.2 340C218 329 191 287 163.8 275C136.7 263 109.3 281 82 301C54.7 321 27.3 343 13.7 354L0 365Z" fill="#dc6104"></path><path d="M0 601L13.7 601C27.3 601 54.7 601 82 601C109.3 601 136.7 601 163.8 601C191 601 218 601 245.2 601C272.3 601 299.7 601 327 601C354.3 601 381.7 601 409 601C436.3 601 463.7 601 491 601C518.3 601 545.7 601 573 601C600.3 601 627.7 601 654.8 601C682 601 709 601 736.2 601C763.3 601 790.7 601 818 601C845.3 601 872.7 601 886.3 601L900 601L900 383L886.3 392C872.7 401 845.3 419 818 436C790.7 453 763.3 469 736.2 460C709 451 682 417 654.8 419C627.7 421 600.3 459 573 463C545.7 467 518.3 437 491 415C463.7 393 436.3 379 409 379C381.7 379 354.3 393 327 405C299.7 417 272.3 427 245.2 417C218 407 191 377 163.8 371C136.7 365 109.3 383 82 397C54.7 411 27.3 421 13.7 426L0 431Z" fill="#ba5206"></path></svg>